<svg class="svg-icon" style="width: 1em; height: 1em;vertical-align: middle;fill: currentColor;overflow: hidden;" viewBox="0 0 1024 1024" version="1.1" xmlns="http://www.w3.org/2000/svg"><path d="M471.4 222.3h-287c-17.7 0-32 14.3-32 32v578c0 17.7 14.3 32 32 32h607c17.7 0 32-14.3 32-32v-289c0-17.7-14.3-32-32-32s-32 14.3-32 32v257h-543v-514h255c17.7 0 32-14.3 32-32 0-17.6-14.3-32-32-32z"  /><path d="M726.5 236.9l67.9 67.9L530.1 569h-67.9v-67.9l264.3-264.2m0-77.2c-8.2 0-16.4 3.1-22.6 9.4L397.6 475.2l0.6 0.6V633h157.2l0.6 0.6 306.2-306.2c12.5-12.5 12.5-32.8 0-45.3L749.1 169c-6.3-6.2-14.5-9.3-22.6-9.3z"  /><path d="M489 420.8c-8.2 0-16.4 3.1-22.6 9.4l-22.6 22.6 113.1 113.1c6.2 6.2 14.4 9.4 22.6 9.4s16.4-3.1 22.6-9.4c12.5-12.5 12.5-32.8 0-45.3l-90.5-90.5c-6.2-6.2-14.4-9.3-22.6-9.3zM285.5 383.5h-128c-17.7 0-32 14.3-32 32v32h160c17.7 0 32-14.3 32-32s-14.3-32-32-32zM285.5 511.5h-128c-17.7 0-32 14.3-32 32v32h160c17.7 0 32-14.3 32-32s-14.3-32-32-32zM285.5 639.5h-128c-17.7 0-32 14.3-32 32v32h160c17.7 0 32-14.3 32-32s-14.3-32-32-32z"  /></svg>